PathFileType	4	(X/Y/Z)	C:/Users/opensim2020/Desktop/walking_exp_matlab/subject03_walking05_straight_02.trc																																																																																																																																					
DataRate	CameraRate	NumFrames	NumMarkers	Units	OrigDataRate	OrigDataStartFrame	OrigNumFrames																																																																																																																																	
100	100	4	45	mm	100	1697	252																																																																																																																																	
Frame#	Time	LFHD			RFHD			LBHD			RBHD			C7			T10			CLAV			STRN			RBAK			LSHO			LUPA			LELB			LFRM			LWRA			LWRB			LFIN			RSHO			RUPA			RELB			RFRM			RWRA			RWRB			RFIN			LASI			RASI			LPSI			RPSI			LTHI			LKNE			LTIB			LANK			LHEE			LTOE			RTHI			RKNE			RTIB			RANK			RHEE			RTOE			*39			*40			*41			*42			*43			*44		
		X1	Y1	Z1	X2	Y2	Z2	X3	Y3	Z3	X4	Y4	Z4	X5	Y5	Z5	X6	Y6	Z6	X7	Y7	Z7	X8	Y8	Z8	X9	Y9	Z9	X10	Y10	Z10	X11	Y11	Z11	X12	Y12	Z12	X13	Y13	Z13	X14	Y14	Z14	X15	Y15	Z15	X16	Y16	Z16	X17	Y17	Z17	X18	Y18	Z18	X19	Y19	Z19	X20	Y20	Z20	X21	Y21	Z21	X22	Y22	Z22	X23	Y23	Z23	X24	Y24	Z24	X25	Y25	Z25	X26	Y26	Z26	X27	Y27	Z27	X28	Y28	Z28	X29	Y29	Z29	X30	Y30	Z30	X31	Y31	Z31	X32	Y32	Z32	X33	Y33	Z33	X34	Y34	Z34	X35	Y35	Z35	X36	Y36	Z36	X37	Y37	Z37	X38	Y38	Z38	X39	Y39	Z39	X40	Y40	Z40	X41	Y41	Z41	X42	Y42	Z42	X43	Y43	Z43	X44	Y44	Z44	X45	Y45	Z45
																																																																																																																																								
221	2.2	851.69501	1617.6084	-1505.06702	839.42975	1620.31897	-1372.14331	722.44092	1577.89185	-1513.07117	714.99847	1580.07483	-1381.96667	684.3219	1415.74207	-1449.58105	663.21777	1097.91138	-1446.75354	806.17456	1340.70361	-1453.25208	854.98627	1178.60632	-1465.99097	639.10797	1234.54749	-1353.26978	754.375	1379.24475	-1605.66162	774.21198	1187.26514	-1678.82581	807.77869	1069.40027	-1691.1582	882.4494	964.09015	-1687.50452	953.53442	870.77765	-1652.37036	926.16327	858.92572	-1699.5575	979.8833	794.90283	-1687.62683	765.50916	1361.70996	-1291.57544	760.3963	1137.64954	-1222.34619	771.16815	1024.79907	-1211.77295	783.69666	888.16998	-1214.3147	809.27228	792.40375	-1254.06421	779.33325	787.21796	-1208.72229	794.79639	713.91675	-1224.96277	823.43121	938.63947	-1582.00305	853.01416	945.90863	-1344.31909	668.40839	952.92004	-1510.25464	687.16199	967.86255	-1363.23547	782.28229	634.4809	-1636.47742	810.69946	455.47321	-1627.6864	659.89093	331.15173	-1606.31689	512.50757	192.01642	-1548.8114	468.51813	199.83641	-1501.43384	575.76373	55.0053	-1535.51465	824.36621	648.71771	-1309.854	855.09381	472.79346	-1357.95813	823.33252	283.92059	-1362.46582	805.23669	71.67171	-1422.04053	759.75598	40.6317	-1472.36487	946.27954	37.72139	-1442.80859	767.67682	1681.50476	-1461.06702	NaN	NaN	NaN	NaN	NaN	NaN	NaN	NaN	NaN	NaN	NaN	NaN	NaN	NaN	NaN
222	2.21	861.30182	1617.77429	-1504.53809	849.11163	1620.25439	-1371.58679	732.09381	1577.83191	-1512.59509	724.61694	1579.80249	-1381.50366	693.67316	1415.95959	-1449.16943	672.28198	1097.97693	-1446.4187	815.55206	1340.54175	-1453.21582	864.08789	1178.33069	-1465.87219	648.36774	1234.90979	-1352.26331	763.51074	1378.52124	-1605.83374	781.94324	1185.91846	-1678.427	815.44995	1067.76001	-1690.92017	887.38641	960.28094	-1687.84888	956.16132	865.19421	-1653.74255	927.95874	853.9707	-1700.53662	979.60693	788.39941	-1689.25684	775.65173	1361.16345	-1291.31091	772.16797	1137.29858	-1221.80481	783.80383	1024.51807	-1210.82178	798.03198	888.00916	-1213.77771	825.12329	793.23456	-1253.9408	795.15424	786.99152	-1208.53467	812.04175	714.24768	-1224.81372	833.24756	938.65375	-1581.32092	861.59222	945.99457	-1343.36523	677.10181	952.34351	-1510.70386	695.44244	967.76575	-1363.29016	797.40436	635.77051	-1637.25171	829.91016	457.64105	-1629.67737	680.07495	332.26553	-1608.57556	534.08826	191.48593	-1551.34167	489.52554	197.64412	-1503.66101	601.10327	56.59596	-1541.43408	831.70355	648.90515	-1309.83252	860.15698	472.71378	-1357.88	825.9787	283.89868	-1362.50012	805.33997	71.78741	-1422.14734	759.72345	40.58426	-1472.37427	946.31396	37.67768	-1442.86938	777.1875	1681.40759	-1460.37048	NaN	NaN	NaN	NaN	NaN	NaN	NaN	NaN	NaN	NaN	NaN	NaN	NaN	NaN	NaN
223	2.22	870.91235	1617.81934	-1504.04431	858.72101	1620.07922	-1371.07556	741.70587	1577.71863	-1512.14026	734.37415	1579.45349	-1381.026	703.48859	1416.03845	-1448.59302	680.75647	1098.5094	-1446.45642	824.92285	1340.26453	-1453.06677	873.15118	1178.04065	-1465.64697	657.38568	1235.51636	-1351.46631	772.49841	1377.87585	-1605.90088	789.61694	1184.71448	-1678.01123	823.01563	1066.29163	-1690.52393	892.04663	956.55743	-1688.1532	957.22742	859.00488	-1654.49609	929.25281	849.18701	-1701.58667	978.95221	782.1521	-1690.87134	785.52301	1360.90039	-1291.09619	783.94971	1137.09656	-1221.37585	796.71826	1024.38623	-1210.21765	812.66095	887.96863	-1213.33142	840.7702	793.88611	-1253.80261	811.29114	787.05414	-1208.27087	829.85559	714.88586	-1224.62952	842.5943	938.72784	-1580.6543	869.78259	946.32098	-1342.24451	686.66553	951.534	-1510.81006	703.67145	967.6366	-1363.45459	813.0506	636.98871	-1638.08948	849.07153	459.91122	-1631.25781	700.67682	332.86362	-1610.37878	556.71729	189.79205	-1554.12378	511.49265	193.95197	-1506.32092	627.87756	57.36849	-1546.36755	838.84882	648.89594	-1310.35461	865.44305	472.42294	-1358.0719	828.19684	283.78827	-1362.49353	805.48035	72.06274	-1422.3645	759.71521	40.69702	-1472.49414	946.32776	37.63065	-1442.98206	786.07587	1680.97009	-1459.23816	NaN	NaN	NaN	NaN	NaN	NaN	NaN	NaN	NaN	NaN	NaN	NaN	NaN	NaN	NaN
224	2.23	880.79456	1617.98926	-1503.59265	868.40613	1619.84851	-1370.60229	751.40582	1577.63123	-1511.68372	744.00696	1579.16956	-1380.66101	712.84277	1416.19604	-1448.51831	689.84863	1098.30225	-1446.11267	834.3197	1340.06555	-1453.05762	882.16425	1177.75806	-1465.29895	666.26624	1235.9469	-1351.07251	781.51385	1377.37305	-1605.95837	797.30133	1183.65466	-1677.55774	830.45844	1064.97021	-1689.99768	896.46387	953.16266	-1688.40161	959.39325	853.74481	-1655.51587	930.29614	844.76587	-1702.71326	977.96582	776.28113	-1692.58826	795.20905	1360.75	-1290.97913	795.77539	1137.01135	-1221.07263	809.85687	1024.39075	-1209.96082	827.34406	888.27612	-1212.9054	856.4422	794.65527	-1253.79932	827.51196	787.38538	-1208.01807	847.51099	715.828	-1224.25708	852.40833	939.24829	-1579.67822	877.91418	946.66254	-1341.05664	695.85345	951.36475	-1511.08691	711.99072	967.45056	-1363.68469	828.93561	637.91821	-1638.89807	868.11108	461.93277	-1632.41394	721.61938	332.87234	-1612.00732	580.12665	186.85509	-1556.76404	534.18616	188.83186	-1509.11707	656.18341	57.56541	-1550.55847	846.09717	648.68384	-1310.83228	870.9364	471.93579	-1358.23718	831.00391	283.64532	-1362.66589	805.6756	72.34848	-1422.37476	759.72058	40.89516	-1472.55286	946.3692	37.58418	-1443.06409	795.61426	1680.83582	-1458.58069	NaN	NaN	NaN	NaN	NaN	NaN	NaN	NaN	NaN	NaN	NaN	NaN	NaN	NaN	NaN
